<svg width="36" height="36" fill="none" xmlns="http://www.w3.org/2000/svg"><path fill-rule="evenodd" clip-rule="evenodd" d="M26.564 13.745c.132-.43 0-.745-.63-.745h-2.077c-.53 0-.773.273-.905.574 0 0-1.057 2.51-2.554 4.142-.485.473-.704.623-.969.623-.132 0-.33-.15-.33-.58v-4.014c0-.516-.146-.745-.587-.745h-3.268c-.33 0-.528.239-.528.466 0 .488.748.601.825 1.974v2.985c0 .654-.12.773-.385.773-.705 0-2.419-2.523-3.436-5.41-.197-.562-.397-.788-.928-.788h-2.08c-.593 0-.712.273-.712.574 0 .535.705 3.197 3.281 6.718C13 22.696 15.418 24 17.621 24c1.321 0 1.484-.29 1.484-.788v-1.817c0-.58.125-.695.544-.695.309 0 .837.15 2.07 1.31C23.13 23.384 23.36 24 24.154 24h2.078c.593 0 .891-.29.72-.861-.188-.569-.861-1.395-1.753-2.375-.485-.557-1.212-1.159-1.433-1.46-.307-.385-.22-.557 0-.9 0 0 2.535-3.478 2.798-4.66Z" fill="#fff"/><rect x="1.5" y="1.5" width="33" height="33" rx="16.5" stroke="#fff" stroke-width="3"/></svg>