<svg width="36" height="36" fill="none" xmlns="http://www.w3.org/2000/svg"><g clip-path="url(#a)"><path fill-rule="evenodd" clip-rule="evenodd" d="M26.122 21.573c-.447-.223-2.638-1.3-3.046-1.45-.408-.149-.705-.222-1.003.225-.297.444-1.151 1.449-1.41 1.746-.262.298-.521.334-.966.112-.446-.225-1.883-.694-3.585-2.212-1.325-1.182-2.22-2.642-2.48-3.089-.26-.445-.028-.687.195-.909.201-.2.446-.52.669-.78.223-.26.297-.447.445-.745.15-.297.075-.557-.037-.78-.111-.224-1.002-2.418-1.374-3.31-.361-.87-.729-.75-1.002-.766a19.283 19.283 0 0 0-.855-.015c-.297 0-.78.111-1.188.558-.41.446-1.56 1.524-1.56 3.719 0 2.193 1.596 4.312 1.82 4.61.223.298 3.142 4.8 7.614 6.731 1.064.46 1.894.734 2.54.938 1.069.34 2.04.292 2.808.177.855-.128 2.637-1.079 3.01-2.12.37-1.04.37-1.933.259-2.12-.111-.185-.408-.296-.855-.52h.002ZM17.99 32.678h-.006c-2.655 0-5.262-.714-7.548-2.067l-.54-.321-5.612 1.473L5.78 26.29l-.353-.561a14.792 14.792 0 0 1-2.266-7.89C3.165 9.665 9.816 3.014 17.996 3.014A14.72 14.72 0 0 1 28.477 7.36a14.737 14.737 0 0 1 4.337 10.49c-.002 8.174-6.653 14.827-14.825 14.827ZM30.608 5.232A17.723 17.723 0 0 0 17.988 0C8.157 0 .153 8.003.15 17.838a17.795 17.795 0 0 0 2.38 8.918L0 36l9.456-2.48a17.823 17.823 0 0 0 8.526 2.171h.008c9.83 0 17.835-8.002 17.838-17.84a17.73 17.73 0 0 0-5.22-12.619" fill="#fff"/></g><defs><clipPath id="a"><path fill="#fff" d="M0 0h36v36H0z"/></clipPath></defs></svg>