<svg width="72" height="72" fill="none" xmlns="http://www.w3.org/2000/svg"><g clip-path="url(#a)"><path fill-rule="evenodd" clip-rule="evenodd" d="M52.245 43.146c-.894-.447-5.277-2.6-6.093-2.9-.816-.298-1.41-.445-2.007.45-.594.887-2.301 2.897-2.82 3.491-.522.597-1.041.67-1.932.225-.891-.45-3.765-1.389-7.17-4.425-2.649-2.364-4.44-5.283-4.959-6.177-.519-.89-.057-1.374.39-1.818.402-.399.891-1.04 1.338-1.56.447-.522.594-.894.891-1.49.3-.595.15-1.114-.075-1.56-.222-.448-2.004-4.837-2.748-6.622-.723-1.737-1.458-1.5-2.004-1.53a38.566 38.566 0 0 0-1.71-.03c-.594 0-1.56.222-2.376 1.116-.819.891-3.12 3.048-3.12 7.437 0 4.386 3.192 8.625 3.639 9.222.447.594 6.285 9.6 15.228 13.461a50.936 50.936 0 0 0 5.082 1.875c2.136.681 4.08.585 5.616.354 1.71-.255 5.274-2.157 6.018-4.239.741-2.082.741-3.867.519-4.239-.222-.372-.816-.594-1.71-1.04h.003Zm-16.266 22.21h-.012a29.61 29.61 0 0 1-15.096-4.135l-1.08-.642-11.226 2.946 2.997-10.944-.705-1.122a29.583 29.583 0 0 1-4.533-15.78C6.33 19.33 19.632 6.027 35.991 6.027c7.92 0 15.366 3.09 20.964 8.694a29.476 29.476 0 0 1 8.676 20.98c-.006 16.35-13.308 29.654-29.652 29.654Zm25.236-54.892A35.445 35.445 0 0 0 35.976 0C16.314 0 .306 16.005.3 35.676a35.592 35.592 0 0 0 4.761 17.835L0 72.001l18.912-4.963a35.642 35.642 0 0 0 17.052 4.344h.015c19.662 0 35.67-16.005 35.676-35.679a35.463 35.463 0 0 0-10.44-25.239Z" fill="#323232"/></g><defs><clipPath id="a"><path fill="#fff" d="M0 0h72v72H0z"/></clipPath></defs></svg>