<svg width="48" height="60" fill="none" xmlns="http://www.w3.org/2000/svg"><g clip-path="url(#a)"><path fill-rule="evenodd" clip-rule="evenodd" d="M47.62.986v49.409c0 2.637-2.136 4.781-4.762 4.781H29.366c-2.935 0-5.338 2.284-5.542 5.178h-.028c-.205-2.894-2.608-5.178-5.542-5.178H4.762C2.136 55.176 0 53.032 0 50.395V.985h47.62Z" fill="#EFEEEE" stroke="#838281" stroke-width=".353"/><path fill-rule="evenodd" clip-rule="evenodd" d="M23.81 38.042c7.077 0 15.807 2.79 23.81 2.79v9.563c0 2.637-2.136 4.781-4.762 4.781H29.366c-2.935 0-5.338 2.284-5.542 5.178h-.028c-.204-2.894-2.607-5.178-5.542-5.178H4.762C2.136 55.176 0 53.032 0 50.395v-9.563c7.81 0 16.733-2.79 23.81-2.79Z" fill="#005B37" stroke="#013B1F" stroke-width=".353"/><path d="M4.62 45.014a.343.343 0 1 0-.653-.15" stroke="#AD873B" stroke-width=".529" stroke-linecap="round" stroke-linejoin="round"/><path fill-rule="evenodd" clip-rule="evenodd" d="M3.968 44.865V46.106v-1.24Z" fill="#AD873B" stroke="#AD873B" stroke-width=".529" stroke-linecap="round" stroke-linejoin="round"/><path d="M3.968 44.865a.343.343 0 1 0-.653.15M9.03 45.014a.343.343 0 1 0-.653-.149" stroke="#AD873B" stroke-width=".529" stroke-linecap="round" stroke-linejoin="round"/><path fill-rule="evenodd" clip-rule="evenodd" d="M8.377 44.865V46.106v-1.24Z" fill="#AD873B" stroke="#AD873B" stroke-width=".529" stroke-linecap="round" stroke-linejoin="round"/><path d="M8.377 44.865a.343.343 0 1 0-.653.15M13.44 45.014a.343.343 0 1 0-.653-.149" stroke="#AD873B" stroke-width=".529" stroke-linecap="round" stroke-linejoin="round"/><path fill-rule="evenodd" clip-rule="evenodd" d="M12.787 44.865V46.106v-1.24Z" fill="#AD873B" stroke="#AD873B" stroke-width=".529" stroke-linecap="round" stroke-linejoin="round"/><path d="M12.787 44.865a.343.343 0 1 0-.653.15M17.849 45.014a.342.342 0 0 0-.31-.492.343.343 0 0 0-.343.343" stroke="#AD873B" stroke-width=".529" stroke-linecap="round" stroke-linejoin="round"/><path fill-rule="evenodd" clip-rule="evenodd" d="M17.196 44.865V46.106v-1.24Z" fill="#AD873B" stroke="#AD873B" stroke-width=".529" stroke-linecap="round" stroke-linejoin="round"/><path d="M17.196 44.865a.343.343 0 1 0-.653.15M22.258 45.014a.342.342 0 0 0-.31-.492.343.343 0 0 0-.343.343" stroke="#AD873B" stroke-width=".529" stroke-linecap="round" stroke-linejoin="round"/><path fill-rule="evenodd" clip-rule="evenodd" d="M21.605 44.865V46.106v-1.24Z" fill="#AD873B" stroke="#AD873B" stroke-width=".529" stroke-linecap="round" stroke-linejoin="round"/><path d="M21.605 44.865a.343.343 0 1 0-.653.15M26.667 45.014a.343.343 0 1 0-.653-.149" stroke="#AD873B" stroke-width=".529" stroke-linecap="round" stroke-linejoin="round"/><path fill-rule="evenodd" clip-rule="evenodd" d="M26.014 44.865V46.106v-1.24Z" fill="#AD873B" stroke="#AD873B" stroke-width=".529" stroke-linecap="round" stroke-linejoin="round"/><path d="M26.014 44.865a.343.343 0 1 0-.653.15M31.076 45.014a.343.343 0 1 0-.652-.149" stroke="#AD873B" stroke-width=".529" stroke-linecap="round" stroke-linejoin="round"/><path fill-rule="evenodd" clip-rule="evenodd" d="M30.424 44.865V46.106v-1.24Z" fill="#AD873B" stroke="#AD873B" stroke-width=".529" stroke-linecap="round" stroke-linejoin="round"/><path d="M30.424 44.865a.343.343 0 1 0-.653.15M35.486 45.014a.342.342 0 0 0-.31-.492.343.343 0 0 0-.343.343" stroke="#AD873B" stroke-width=".529" stroke-linecap="round" stroke-linejoin="round"/><path fill-rule="evenodd" clip-rule="evenodd" d="M34.833 44.865V46.106v-1.24Z" fill="#AD873B" stroke="#AD873B" stroke-width=".529" stroke-linecap="round" stroke-linejoin="round"/><path d="M34.833 44.865a.343.343 0 1 0-.653.15M39.895 45.014a.342.342 0 0 0-.31-.492.343.343 0 0 0-.343.343" stroke="#AD873B" stroke-width=".529" stroke-linecap="round" stroke-linejoin="round"/><path fill-rule="evenodd" clip-rule="evenodd" d="M39.242 44.865V46.106v-1.24Z" fill="#AD873B" stroke="#AD873B" stroke-width=".529" stroke-linecap="round" stroke-linejoin="round"/><path d="M39.242 44.865a.343.343 0 1 0-.653.15M44.304 45.014a.342.342 0 0 0-.31-.492.343.343 0 0 0-.343.343" stroke="#AD873B" stroke-width=".529" stroke-linecap="round" stroke-linejoin="round"/><path fill-rule="evenodd" clip-rule="evenodd" d="M43.651 44.865V46.106v-1.24Z" fill="#AD873B" stroke="#AD873B" stroke-width=".529" stroke-linecap="round" stroke-linejoin="round"/><path d="M43.651 44.865a.343.343 0 1 0-.653.15M4.62 52.138a.343.343 0 1 0-.653-.15" stroke="#AD873B" stroke-width=".529" stroke-linecap="round" stroke-linejoin="round"/><path fill-rule="evenodd" clip-rule="evenodd" d="M3.968 51.99v1.24-1.24Z" fill="#AD873B" stroke="#AD873B" stroke-width=".529" stroke-linecap="round" stroke-linejoin="round"/><path d="M3.968 51.99a.343.343 0 1 0-.653.149M9.03 52.138a.342.342 0 0 0-.309-.491.343.343 0 0 0-.344.342" stroke="#AD873B" stroke-width=".529" stroke-linecap="round" stroke-linejoin="round"/><path fill-rule="evenodd" clip-rule="evenodd" d="M8.377 51.99v1.24-1.24Z" fill="#AD873B" stroke="#AD873B" stroke-width=".529" stroke-linecap="round" stroke-linejoin="round"/><path d="M8.377 51.99a.343.343 0 1 0-.653.149M13.44 52.138a.342.342 0 0 0-.31-.491.343.343 0 0 0-.343.342" stroke="#AD873B" stroke-width=".529" stroke-linecap="round" stroke-linejoin="round"/><path fill-rule="evenodd" clip-rule="evenodd" d="M12.787 51.99v1.24-1.24Z" fill="#AD873B" stroke="#AD873B" stroke-width=".529" stroke-linecap="round" stroke-linejoin="round"/><path d="M12.787 51.99a.343.343 0 1 0-.653.149M17.849 52.138a.343.343 0 1 0-.653-.15" stroke="#AD873B" stroke-width=".529" stroke-linecap="round" stroke-linejoin="round"/><path fill-rule="evenodd" clip-rule="evenodd" d="M17.196 51.99v1.24-1.24Z" fill="#AD873B" stroke="#AD873B" stroke-width=".529" stroke-linecap="round" stroke-linejoin="round"/><path d="M17.196 51.99a.343.343 0 1 0-.653.149M22.258 52.138a.341.341 0 0 0-.31-.491.343.343 0 0 0-.343.342" stroke="#AD873B" stroke-width=".529" stroke-linecap="round" stroke-linejoin="round"/><path fill-rule="evenodd" clip-rule="evenodd" d="M21.605 51.99v1.24-1.24Z" fill="#AD873B" stroke="#AD873B" stroke-width=".529" stroke-linecap="round" stroke-linejoin="round"/><path d="M21.605 51.99a.343.343 0 1 0-.653.149M26.667 52.138a.342.342 0 0 0-.31-.491.343.343 0 0 0-.343.342" stroke="#AD873B" stroke-width=".529" stroke-linecap="round" stroke-linejoin="round"/><path fill-rule="evenodd" clip-rule="evenodd" d="M26.014 51.99v1.24-1.24Z" fill="#AD873B" stroke="#AD873B" stroke-width=".529" stroke-linecap="round" stroke-linejoin="round"/><path d="M26.014 51.99a.343.343 0 1 0-.653.149M31.076 52.138a.342.342 0 0 0-.309-.491.343.343 0 0 0-.343.342" stroke="#AD873B" stroke-width=".529" stroke-linecap="round" stroke-linejoin="round"/><path fill-rule="evenodd" clip-rule="evenodd" d="M30.424 51.99v1.24-1.24Z" fill="#AD873B" stroke="#AD873B" stroke-width=".529" stroke-linecap="round" stroke-linejoin="round"/><path d="M30.424 51.99a.343.343 0 1 0-.653.149M35.486 52.138a.341.341 0 0 0-.31-.491.343.343 0 0 0-.343.342" stroke="#AD873B" stroke-width=".529" stroke-linecap="round" stroke-linejoin="round"/><path fill-rule="evenodd" clip-rule="evenodd" d="M34.833 51.99v1.24-1.24Z" fill="#AD873B" stroke="#AD873B" stroke-width=".529" stroke-linecap="round" stroke-linejoin="round"/><path d="M34.833 51.99a.343.343 0 1 0-.653.149M39.895 52.138a.343.343 0 1 0-.653-.15" stroke="#AD873B" stroke-width=".529" stroke-linecap="round" stroke-linejoin="round"/><path fill-rule="evenodd" clip-rule="evenodd" d="M39.242 51.99v1.24-1.24Z" fill="#AD873B" stroke="#AD873B" stroke-width=".529" stroke-linecap="round" stroke-linejoin="round"/><path d="M39.242 51.99a.343.343 0 1 0-.653.149M44.304 52.138a.343.343 0 1 0-.653-.15" stroke="#AD873B" stroke-width=".529" stroke-linecap="round" stroke-linejoin="round"/><path fill-rule="evenodd" clip-rule="evenodd" d="M43.651 51.99v1.24-1.24Z" fill="#AD873B" stroke="#AD873B" stroke-width=".529" stroke-linecap="round" stroke-linejoin="round"/><path d="M43.651 51.99a.343.343 0 1 0-.653.149M2.637 41.452a.343.343 0 0 0-.31-.492.343.343 0 0 0-.343.343" stroke="#AD873B" stroke-width=".529" stroke-linecap="round" stroke-linejoin="round"/><path fill-rule="evenodd" clip-rule="evenodd" d="M1.984 41.303V42.544v-1.24Z" fill="#AD873B" stroke="#AD873B" stroke-width=".529" stroke-linecap="round" stroke-linejoin="round"/><path d="M1.984 41.303a.343.343 0 1 0-.653.15M7.002 41.452a.342.342 0 0 0-.31-.492.343.343 0 0 0-.343.343" stroke="#AD873B" stroke-width=".529" stroke-linecap="round" stroke-linejoin="round"/><path fill-rule="evenodd" clip-rule="evenodd" d="M6.35 41.303V42.544v-1.24Z" fill="#AD873B" stroke="#AD873B" stroke-width=".529" stroke-linecap="round" stroke-linejoin="round"/><path d="M6.35 41.303a.343.343 0 1 0-.653.15M11.367 41.452a.343.343 0 1 0-.653-.15" stroke="#AD873B" stroke-width=".529" stroke-linecap="round" stroke-linejoin="round"/><path fill-rule="evenodd" clip-rule="evenodd" d="M10.714 41.303V42.544v-1.24Z" fill="#AD873B" stroke="#AD873B" stroke-width=".529" stroke-linecap="round" stroke-linejoin="round"/><path d="M10.714 41.303a.343.343 0 1 0-.652.15M15.732 41.452a.342.342 0 0 0-.309-.492.343.343 0 0 0-.343.343" stroke="#AD873B" stroke-width=".529" stroke-linecap="round" stroke-linejoin="round"/><path fill-rule="evenodd" clip-rule="evenodd" d="M15.08 41.303V42.544v-1.24Z" fill="#AD873B" stroke="#AD873B" stroke-width=".529" stroke-linecap="round" stroke-linejoin="round"/><path d="M15.08 41.303a.343.343 0 1 0-.653.15M20.097 41.452a.342.342 0 0 0-.309-.492.343.343 0 0 0-.343.343" stroke="#AD873B" stroke-width=".529" stroke-linecap="round" stroke-linejoin="round"/><path fill-rule="evenodd" clip-rule="evenodd" d="M19.445 41.303V42.544v-1.24Z" fill="#AD873B" stroke="#AD873B" stroke-width=".529" stroke-linecap="round" stroke-linejoin="round"/><path d="M19.445 41.303a.343.343 0 1 0-.653.15M24.463 41.452a.342.342 0 0 0-.31-.492.343.343 0 0 0-.343.343" stroke="#AD873B" stroke-width=".529" stroke-linecap="round" stroke-linejoin="round"/><path fill-rule="evenodd" clip-rule="evenodd" d="M23.81 41.303V42.544v-1.24Z" fill="#AD873B" stroke="#AD873B" stroke-width=".529" stroke-linecap="round" stroke-linejoin="round"/><path d="M23.81 41.303a.343.343 0 1 0-.653.15M28.828 41.452a.343.343 0 1 0-.653-.15" stroke="#AD873B" stroke-width=".529" stroke-linecap="round" stroke-linejoin="round"/><path fill-rule="evenodd" clip-rule="evenodd" d="M28.175 41.303V42.544v-1.24Z" fill="#AD873B" stroke="#AD873B" stroke-width=".529" stroke-linecap="round" stroke-linejoin="round"/><path d="M28.175 41.303a.343.343 0 1 0-.653.15M33.193 41.452a.343.343 0 1 0-.653-.15" stroke="#AD873B" stroke-width=".529" stroke-linecap="round" stroke-linejoin="round"/><path fill-rule="evenodd" clip-rule="evenodd" d="M32.54 41.303V42.544v-1.24Z" fill="#AD873B" stroke="#AD873B" stroke-width=".529" stroke-linecap="round" stroke-linejoin="round"/><path d="M32.54 41.303a.343.343 0 1 0-.653.15M37.558 41.452a.343.343 0 1 0-.653-.15" stroke="#AD873B" stroke-width=".529" stroke-linecap="round" stroke-linejoin="round"/><path fill-rule="evenodd" clip-rule="evenodd" d="M36.905 41.303V42.544v-1.24Z" fill="#AD873B" stroke="#AD873B" stroke-width=".529" stroke-linecap="round" stroke-linejoin="round"/><path d="M36.905 41.303a.343.343 0 1 0-.653.15M41.923 41.452a.344.344 0 1 0-.653-.149" stroke="#AD873B" stroke-width=".529" stroke-linecap="round" stroke-linejoin="round"/><path fill-rule="evenodd" clip-rule="evenodd" d="M41.27 41.303V42.544v-1.24Z" fill="#AD873B" stroke="#AD873B" stroke-width=".529" stroke-linecap="round" stroke-linejoin="round"/><path d="M41.27 41.303a.343.343 0 1 0-.653.15M46.288 41.452a.343.343 0 1 0-.653-.15" stroke="#AD873B" stroke-width=".529" stroke-linecap="round" stroke-linejoin="round"/><path fill-rule="evenodd" clip-rule="evenodd" d="M45.635 41.303V42.544v-1.24Z" fill="#AD873B" stroke="#AD873B" stroke-width=".529" stroke-linecap="round" stroke-linejoin="round"/><path d="M45.635 41.303a.343.343 0 1 0-.652.15M2.637 48.577a.343.343 0 1 0-.653-.15" stroke="#AD873B" stroke-width=".529" stroke-linecap="round" stroke-linejoin="round"/><path fill-rule="evenodd" clip-rule="evenodd" d="M1.984 48.427V49.668v-1.24Z" fill="#AD873B" stroke="#AD873B" stroke-width=".529" stroke-linecap="round" stroke-linejoin="round"/><path d="M1.984 48.427a.343.343 0 1 0-.653.15M7.002 48.577a.343.343 0 0 0-.31-.492.343.343 0 0 0-.343.342" stroke="#AD873B" stroke-width=".529" stroke-linecap="round" stroke-linejoin="round"/><path fill-rule="evenodd" clip-rule="evenodd" d="M6.35 48.427V49.668v-1.24Z" fill="#AD873B" stroke="#AD873B" stroke-width=".529" stroke-linecap="round" stroke-linejoin="round"/><path d="M6.35 48.427a.343.343 0 1 0-.653.15M11.367 48.577a.343.343 0 1 0-.653-.15" stroke="#AD873B" stroke-width=".529" stroke-linecap="round" stroke-linejoin="round"/><path fill-rule="evenodd" clip-rule="evenodd" d="M10.714 48.427V49.668v-1.24Z" fill="#AD873B" stroke="#AD873B" stroke-width=".529" stroke-linecap="round" stroke-linejoin="round"/><path d="M10.714 48.427a.343.343 0 1 0-.652.15M15.732 48.577a.343.343 0 1 0-.652-.15" stroke="#AD873B" stroke-width=".529" stroke-linecap="round" stroke-linejoin="round"/><path fill-rule="evenodd" clip-rule="evenodd" d="M15.08 48.427V49.668v-1.24Z" fill="#AD873B" stroke="#AD873B" stroke-width=".529" stroke-linecap="round" stroke-linejoin="round"/><path d="M15.08 48.427a.343.343 0 1 0-.653.15M20.097 48.577a.343.343 0 1 0-.652-.15" stroke="#AD873B" stroke-width=".529" stroke-linecap="round" stroke-linejoin="round"/><path fill-rule="evenodd" clip-rule="evenodd" d="M19.445 48.427V49.668v-1.24Z" fill="#AD873B" stroke="#AD873B" stroke-width=".529" stroke-linecap="round" stroke-linejoin="round"/><path d="M19.445 48.427a.343.343 0 1 0-.653.15M24.463 48.577a.343.343 0 1 0-.653-.15" stroke="#AD873B" stroke-width=".529" stroke-linecap="round" stroke-linejoin="round"/><path fill-rule="evenodd" clip-rule="evenodd" d="M23.81 48.427V49.668v-1.24Z" fill="#AD873B" stroke="#AD873B" stroke-width=".529" stroke-linecap="round" stroke-linejoin="round"/><path d="M23.81 48.427a.343.343 0 1 0-.653.15M28.828 48.577a.342.342 0 0 0-.31-.492.343.343 0 0 0-.343.342" stroke="#AD873B" stroke-width=".529" stroke-linecap="round" stroke-linejoin="round"/><path fill-rule="evenodd" clip-rule="evenodd" d="M28.175 48.427V49.668v-1.24Z" fill="#AD873B" stroke="#AD873B" stroke-width=".529" stroke-linecap="round" stroke-linejoin="round"/><path d="M28.175 48.427a.343.343 0 1 0-.653.15M33.193 48.577a.342.342 0 0 0-.31-.492.343.343 0 0 0-.343.342" stroke="#AD873B" stroke-width=".529" stroke-linecap="round" stroke-linejoin="round"/><path fill-rule="evenodd" clip-rule="evenodd" d="M32.54 48.427V49.668v-1.24Z" fill="#AD873B" stroke="#AD873B" stroke-width=".529" stroke-linecap="round" stroke-linejoin="round"/><path d="M32.54 48.427a.343.343 0 1 0-.653.15M37.558 48.577a.342.342 0 0 0-.31-.492.343.343 0 0 0-.343.342" stroke="#AD873B" stroke-width=".529" stroke-linecap="round" stroke-linejoin="round"/><path fill-rule="evenodd" clip-rule="evenodd" d="M36.905 48.427V49.668v-1.24Z" fill="#AD873B" stroke="#AD873B" stroke-width=".529" stroke-linecap="round" stroke-linejoin="round"/><path d="M36.905 48.427a.343.343 0 1 0-.653.15M41.923 48.577a.343.343 0 1 0-.653-.15" stroke="#AD873B" stroke-width=".529" stroke-linecap="round" stroke-linejoin="round"/><path fill-rule="evenodd" clip-rule="evenodd" d="M41.27 48.427V49.668v-1.24Z" fill="#AD873B" stroke="#AD873B" stroke-width=".529" stroke-linecap="round" stroke-linejoin="round"/><path d="M41.27 48.427a.343.343 0 1 0-.653.15M46.288 48.577a.342.342 0 0 0-.31-.492.343.343 0 0 0-.343.342" stroke="#AD873B" stroke-width=".529" stroke-linecap="round" stroke-linejoin="round"/><path fill-rule="evenodd" clip-rule="evenodd" d="M45.635 48.427V49.668v-1.24Z" fill="#AD873B" stroke="#AD873B" stroke-width=".529" stroke-linecap="round" stroke-linejoin="round"/><path d="M45.635 48.427a.343.343 0 1 0-.652.15" stroke="#AD873B" stroke-width=".529" stroke-linecap="round" stroke-linejoin="round"/><path fill-rule="evenodd" clip-rule="evenodd" d="M38.84 40.95c-.13.246-.343.47-.392.745-.014.083-.037.225.042.257l.238.095.186.048c.329-.01.584-.075.735-.44.298-.719.267-1.422.181-2.196-.11-.983-.465-1.747-.898-2.45-.851-1.383-1.84-2.703-2.507-4.193.657.153 3.367 1.808 3.914 2.24.801.632 2.629 2.285 2.629 3.576 0 .718-.35.994-.715 1.597-.105.174.033.318.163.404.231.035.47.173.695.104.206-.062.399-.148.516-.326 1.151-1.738.043-4.349-.912-5.752-.768-1.024-1.257-1.834-1.855-3.031-.273-.546-.569-1.053-.86-1.555-.725-1.249-2.146-2.878-3.575-3.785 1.775-1.526 2.936-2.736 3.408-3.348 2.024-2.62 2.882-7.25-.659-10.204-1.298-1.083-3.531-1.432-5.601-1.706-2.705-.358-6.863-.576-9.315-1.623-.733-.313-1.725-.955-2.126-1.553-.9.6-1.704 2.296-1.704 3.84 0 2.528 1.969 3.778 4.171 4.12 2.378.372 4.898.633 7.379.922 2.347.274 4.497 1.165 5.118 3.177.782 2.536-.614 4.79-2.265 5.662-.402-.213-1.152-.385-1.76-.385-3.042 0-5.671 2.25-8.795 2.25-2.752 0-5.209-1.199-6.112-3.008-.63-1.262-.384-2.686-.649-3.906-.279-1.282-.796-1.916-1.76-2.797 0-.821-.312-1.646-1.21-1.646-.522 0-.506.768-.88.768-.503 0-.602-.823-.934-.823h-.11c-.392 0-.77.388-.77.768 0 .141.023.248.055.384-.514.12-.927.858-1.154 1.33-.286.595-1.244.956-1.174 1.29.05.24.132.526.3.727.341.02.701-.031.759.055.039.292-.68.091-.65.167.047.1.191.257.424.272 1.341.085 2.707.54 2.707 2.061 0 1.044-.368 3.252-.654 3.982-.54 1.303-1.063 2.187-2.804 2.053-1.68-.13-3.453-.424-5.083.17-.521.191-1.442.746-1.464 1.338-.004.11.036.21.104.297.123.155.312.139.498.139.374 0 1.113-.659 1.76-.659 1.657 0 3.454 1.427 5.607 1.427.736 0 1.314-.107 2.034-.274-1.151 2.17-4.942 1.098-7.037 1.152-.944 0-1.57.622-1.924 1.207-.11.18.092.54.3.543.139.002.302.016.428-.042.34-.155 1.29-.611 1.8-.611 1.677 0 2.71 1.646 5.223 1.646 1.798 0 2.896-.666 4.014-1.536.991.663 2.202 1.426 3.848 1.426h.055c1.676 0 3.271-.561 4.491-1.059.987-.402 3.13-1.135 4.415-1.135.593 0 1.113.19 1.554.589.352.318.828.67 1.127.96.987.956 2.48 1.829 3.751 2.4.877.394 1.999.817 2.735 1.441.59.5 1.375 1.59.944 2.413Z" fill="#7D211E" stroke="#992E2C" stroke-width=".282"/><path fill-rule="evenodd" clip-rule="evenodd" d="M10.253 19.467c-.058.372-.38.416-.66.293l.66-.293Z" fill="#992E2C" stroke="#992E2C" stroke-width=".176" stroke-linecap="round" stroke-linejoin="round"/><path fill-rule="evenodd" clip-rule="evenodd" d="M14.841 16.373c.28.041.448.378.448.658 0 .265-.03.495-.275.659.083-.496.008-1.028-.414-1.04-.211-.006-.256.306-.301.522-.199-.373.06-.87.542-.799Z" fill="#992E2C"/><path fill-rule="evenodd" clip-rule="evenodd" d="M14.376 16.666c.448-.332.705.095.798.483.013-.347-.134-.679-.453-.7-.149-.01-.317.1-.345.217Z" fill="#7D211E"/><path fill-rule="evenodd" clip-rule="evenodd" d="M13.793 18.538s.018-.196-.038-.266c-.048-.06-.138-.081-.215-.083-.196-.005-.25.128-.443.135-.164.007-.427.061-.525.096-.352.147-.472.156-.447.222.014.037.208.103.297.21.158.4.508.475.817.355a.599.599 0 0 0 .293-.286c.046-.087.065-.201.105-.275.043-.08.142-.016.156-.108Z" fill="#992E2C"/><path fill-rule="evenodd" clip-rule="evenodd" d="M12.55 18.914c.056.146.342.315.582.23.24-.085.343-.392.287-.538-.057-.147-.242-.044-.482.042-.24.085-.444.12-.388.266Z" fill="#fff"/><path fill-rule="evenodd" clip-rule="evenodd" d="M13.236 18.493a.25.25 0 0 1 .127.01.161.161 0 0 1 .085.093c.034.087.018.204-.034.316a.483.483 0 0 1-.27.261.518.518 0 0 1-.385-.028.454.454 0 0 1-.239-.221.148.148 0 0 1 .003-.121.228.228 0 0 1 .086-.088c.077-.05.21-.058.33-.1.12-.043.206-.112.297-.122Zm.011.06c-.08.01-.166.08-.286.122-.12.042-.25.05-.316.093a.18.18 0 0 0-.066.064c-.01.022-.012.042 0 .072.022.06.102.135.204.182a.454.454 0 0 0 .337.027.432.432 0 0 0 .238-.23c.046-.1.055-.207.032-.267-.012-.03-.027-.044-.049-.054a.192.192 0 0 0-.094-.009Z" fill="#682B29"/><path fill-rule="evenodd" clip-rule="evenodd" d="M12.8 18.943c.03.113.143.185.25.16.108-.026.17-.138.14-.251-.032-.114-.144-.185-.251-.16-.107.025-.17.137-.139.25Z" fill="#992E2C"/><path fill-rule="evenodd" clip-rule="evenodd" d="M12.97 18.798a.106.106 0 0 1 .128.075.097.097 0 0 1-.075.121.102.102 0 0 1-.124-.075.094.094 0 0 1 .071-.12Z" fill="#682B29"/><path fill-rule="evenodd" clip-rule="evenodd" d="M12.902 18.795a.074.074 0 0 1 .089.053.068.068 0 0 1-.05.087c-.037.008-.075-.011-.087-.054-.012-.044.012-.078.048-.086Z" fill="#fff"/><path fill-rule="evenodd" clip-rule="evenodd" d="M12.242 18.73c-.098-.016-.104-.053-.104-.053l-.018-.067.067.013s.259.043.64-.047c.168-.04.368-.177.556-.239.094-.03.193-.044.28 0 .088.043.15.137.19.285-.077-.002-.11-.13-.24-.197-.049-.025-.113-.02-.194.007-.162.053-.364.193-.565.241-.362.086-.514.074-.612.058Z" fill="#682B29"/><path fill-rule="evenodd" clip-rule="evenodd" d="M3.927 34.628c.068-.298.24-.58.525-.652.045-.012.092.031.085.066-.113.172-.508.574-.61.586Z" fill="#AD873B" stroke="#BF994C" stroke-width=".076"/><path fill-rule="evenodd" clip-rule="evenodd" d="M4.275 34.114c.038-.019.059.028.036.05-.093.046-.178.174-.243.264.002-.075.07-.204.207-.314Z" fill="#CCA75E"/><path fill-rule="evenodd" clip-rule="evenodd" d="M4.175 34.831c.068-.298.239-.58.525-.653.045-.011.092.032.085.067-.113.172-.508.574-.61.586Z" fill="#AD873B" stroke="#BF994C" stroke-width=".076"/><path fill-rule="evenodd" clip-rule="evenodd" d="M4.523 34.316c.038-.018.059.028.036.05-.093.047-.178.175-.243.265.002-.075.07-.205.207-.315Z" fill="#CCA75E"/><path fill-rule="evenodd" clip-rule="evenodd" d="M2.935 31.273c.036-.304.177-.602.454-.704.044-.016.094.022.091.058-.094.183-.445.623-.545.646Z" fill="#AD873B" stroke="#BF994C" stroke-width=".076"/><path fill-rule="evenodd" clip-rule="evenodd" d="M3.227 30.725c.036-.022.061.022.041.046-.088.056-.16.192-.214.288-.006-.074.049-.21.173-.334Z" fill="#CCA75E"/><path fill-rule="evenodd" clip-rule="evenodd" d="M3.202 31.45c.037-.304.177-.603.454-.704.044-.017.095.021.092.057-.095.183-.445.623-.546.646Z" fill="#AD873B" stroke="#BF994C" stroke-width=".076"/><path fill-rule="evenodd" clip-rule="evenodd" d="M3.495 30.9c.036-.02.061.023.041.047-.088.056-.16.192-.214.289-.007-.075.048-.212.173-.335Z" fill="#CCA75E"/><path fill-rule="evenodd" clip-rule="evenodd" d="M38.464 42.455c-.013-.305.078-.622.335-.767.04-.023.097.006.1.042-.064.196-.34.687-.435.725Z" fill="#AD873B" stroke="#BF994C" stroke-width=".076"/><path fill-rule="evenodd" clip-rule="evenodd" d="M38.664 41.867c.032-.027.064.012.048.04-.078.068-.126.215-.164.318-.019-.072.014-.216.116-.358Z" fill="#CCA75E"/><path fill-rule="evenodd" clip-rule="evenodd" d="M38.757 42.586c-.013-.305.077-.622.334-.767.04-.023.097.006.1.042-.064.195-.339.686-.434.725Z" fill="#AD873B" stroke="#BF994C" stroke-width=".076"/><path fill-rule="evenodd" clip-rule="evenodd" d="M38.957 41.998c.032-.027.064.012.048.04-.078.068-.127.214-.165.318-.018-.073.014-.216.117-.358Z" fill="#CCA75E"/><path fill-rule="evenodd" clip-rule="evenodd" d="M42.354 41.1c-.013-.306.078-.623.335-.768.04-.023.096.006.099.042-.063.195-.339.687-.434.725Z" fill="#AD873B" stroke="#BF994C" stroke-width=".076"/><path fill-rule="evenodd" clip-rule="evenodd" d="M42.554 40.511c.032-.027.064.012.048.04-.078.068-.126.215-.164.318-.019-.072.013-.216.116-.358Z" fill="#CCA75E"/><path fill-rule="evenodd" clip-rule="evenodd" d="M42.647 41.23c-.013-.305.077-.622.334-.767.04-.023.097.006.1.042-.064.195-.34.686-.434.725Z" fill="#AD873B" stroke="#BF994C" stroke-width=".076"/><path fill-rule="evenodd" clip-rule="evenodd" d="M42.847 40.642c.032-.027.064.012.048.04-.078.068-.127.215-.165.318-.018-.072.014-.216.117-.358Z" fill="#CCA75E"/></g><defs><clipPath id="a"><path fill="#fff" d="M0 0h48v60H0z"/></clipPath></defs></svg>