<?xml version="1.0" encoding="UTF-8" standalone="no"?>
<svg
   xmlns:dc="http://purl.org/dc/elements/1.1/"
   xmlns:cc="http://creativecommons.org/ns#"
   xmlns:rdf="http://www.w3.org/1999/02/22-rdf-syntax-ns#"
   xmlns:svg="http://www.w3.org/2000/svg"
   xmlns="http://www.w3.org/2000/svg"
   xmlns:sodipodi="http://sodipodi.sourceforge.net/DTD/sodipodi-0.dtd"
   xmlns:inkscape="http://www.inkscape.org/namespaces/inkscape"
   inkscape:version="1.0 (4035a4fb49, 2020-05-01)"
   sodipodi:docname="102 ะบ.svg"
   viewBox="0 0 281.82559 191.24519"
   id="svg12"
   height="191.24519"
   width="281.82559"
   version="1.1">
  <metadata
     id="metadata18">
    <rdf:RDF>
      <cc:Work
         rdf:about="">
        <dc:format>image/svg+xml</dc:format>
        <dc:type
           rdf:resource="http://purl.org/dc/dcmitype/StillImage" />
        <dc:title></dc:title>
      </cc:Work>
    </rdf:RDF>
  </metadata>
  <defs
     id="defs16" />
  <sodipodi:namedview
     inkscape:current-layer="svg12"
     inkscape:window-maximized="1"
     inkscape:window-y="-8"
     inkscape:window-x="-8"
     inkscape:cy="127.75721"
     inkscape:cx="115.09169"
     inkscape:zoom="1.0215636"
     showgrid="false"
     id="namedview14"
     inkscape:window-height="1027"
     inkscape:window-width="1920"
     inkscape:pageshadow="2"
     inkscape:pageopacity="0"
     guidetolerance="10"
     gridtolerance="10"
     objecttolerance="10"
     borderopacity="1"
     bordercolor="#666666"
     pagecolor="#ffffff" />
  <g
     transform="translate(-156.725,-202.0152)"
     id="Layer1000">
    <g
       id="Layer1001">
      <path
         id="path2"
         style="fill:#009149;fill-rule:evenodd"
         d="m 156.725,202.0152 v 37.4289 h 11.603 v 103.116 h 41.9199 V 202.0152 Z" />
      <path
         id="path4"
         style="fill:#009149;fill-rule:evenodd"
         d="m 327.5633,342.5601 c 36.867,0 73.7347,0 110.6018,0 v -37.4289 h -68.4945 v -14.036 c 23.0186,0 45.8497,0 68.6813,0 v -89.08 c -36.867,0 -73.9216,0 -110.7886,0 v 37.4289 h 68.4944 v 14.0354 h -68.4944 z" />
      <path
         id="path6"
         style="fill:#009149;fill-rule:evenodd"
         d="m 251.4937,238.8159 h 34.6457 v 66.4464 h -34.6457 z" />
    </g>
    <path
       id="path9"
       style="fill:#3a3a3a;fill-rule:evenodd"
       d="m 179.9875,376.5828 h 15.5039 v -9.9446 h -15.5039 v -6.4855 h 16.8009 v -10.1303 h -28.29 v 43.238 h 28.7843 V 382.945 h -17.2952 z m 35.8874,-26.5604 h -11.6124 v 43.238 h 29.3401 v -10.8097 h -17.7277 z m 35.0229,26.5604 h 15.504 v -9.9446 h -15.504 v -6.4855 h 16.801 v -10.1303 h -28.29 v 43.238 H 268.193 V 382.945 h -17.2952 z m 46.5737,-7.9065 -12.8477,-18.6539 h -9.451 v 43.238 h 11.6124 v -12.4775 l -0.1851,-10.2531 8.03,11.6741 h 5.4977 l 7.9676,-11.6124 -0.1234,10.1914 v 12.4775 h 11.6124 v -43.238 h -9.3886 z m 42.0021,7.9065 h 15.504 v -9.9446 h -15.504 v -6.4855 h 16.801 v -10.1303 h -28.29 v 43.238 h 28.7843 V 382.945 h -17.2953 z m 48.7357,-14.5772 0.1852,9.7595 -15.8748,-21.7427 h -8.7711 v 43.238 h 11.489 v -10.5005 l -0.1851,-11.1182 15.7508,21.6187 h 8.8951 v -43.238 h -11.4891 z m 16.9861,-11.9832 v 10.6245 h 10.8714 v 32.6135 h 11.6741 v -32.6135 h 10.8097 v -10.6245 z" />
  </g>
</svg>
